<?xml version="1.0" standalone="no"?><!DOCTYPE svg PUBLIC "-//W3C//DTD SVG 1.1//EN" "http://www.w3.org/Graphics/SVG/1.1/DTD/svg11.dtd"><svg t="1736799161168" class="icon" viewBox="0 0 1024 1024" version="1.1" xmlns="http://www.w3.org/2000/svg" p-id="7714" xmlns:xlink="http://www.w3.org/1999/xlink" width="200" height="200"><path d="M944.355556 142.222222c-17.066667-22.755556-45.511111-34.133333-79.644445-34.133333-28.444444 0-68.266667 5.688889-108.088889 22.755555h-5.688889c17.066667 11.377778 34.133333 28.444444 51.2 39.822223 56.888889-17.066667 91.022222-11.377778 96.711111 0 11.377778 11.377778 5.688889 45.511111-22.755555 91.022222 11.377778 17.066667 17.066667 34.133333 28.444444 51.2 0 0 0 5.688889 5.688889 5.688889 22.755556-34.133333 34.133333-62.577778 45.511111-91.022222 11.377778-28.444444 5.688889-62.577778-11.377777-85.333334z" p-id="7715" fill="#38bdf8"></path><path d="M267.377778 512a45.511111 45.511111 0 1 0 91.022222 0 45.511111 45.511111 0 1 0-91.022222 0Z" p-id="7716" fill="#38bdf8"></path><path d="M625.777778 614.4c-113.777778 85.333333-227.555556 153.6-324.266667 193.422222-11.377778 5.688889-17.066667 5.688889-28.444444 11.377778 22.755556 17.066667 51.2 34.133333 79.644444 45.511111 51.2 22.755556 108.088889 34.133333 164.977778 34.133333s113.777778-11.377778 164.977778-34.133333c51.2-22.755556 96.711111-51.2 136.533333-91.022222 39.822222-39.822222 68.266667-85.333333 91.022222-130.844445 22.755556-51.2 34.133333-108.088889 34.133334-159.288888 0-51.2-11.377778-102.4-28.444445-153.6-5.688889 5.688889-11.377778 17.066667-17.066667 22.755555-68.266667 79.644444-164.977778 176.355556-273.066666 261.688889zM813.511111 187.733333c-5.688889-5.688889-11.377778-5.688889-11.377778-11.377777-17.066667-17.066667-34.133333-28.444444-51.2-39.822223-22.755556-11.377778-45.511111-28.444444-68.266666-34.133333-56.888889-28.444444-108.088889-39.822222-164.977778-39.822222s-113.777778 11.377778-164.977778 34.133333c-51.2 22.755556-96.711111 51.2-136.533333 91.022222-39.822222 34.133333-68.266667 79.644444-91.022222 130.844445-22.755556 51.2-34.133333 108.088889-34.133334 159.288889 0 51.2 11.377778 96.711111 22.755556 142.222222-22.755556 34.133333-39.822222 68.266667-51.2 96.711111-11.377778 39.822222-5.688889 68.266667 11.377778 91.022222 17.066667 22.755556 45.511111 34.133333 79.644444 34.133334h11.377778c28.444444 0 62.577778-11.377778 96.711111-22.755556-17.066667-11.377778-34.133333-28.444444-51.2-39.822222-51.2 11.377778-85.333333 11.377778-96.711111 0 0-17.066667 5.688889-45.511111 34.133333-96.711111 17.066667 34.133333 39.822222 62.577778 68.266667 91.022222h5.688889c17.066667-5.688889 39.822222-11.377778 62.577777-17.066667 91.022222-34.133333 204.8-102.4 307.2-187.733333 108.088889-85.333333 199.111111-170.666667 256-250.311111l34.133334-51.2c-22.755556-28.444444-39.822222-56.888889-68.266667-79.644445z m-500.622222 420.977778c-56.888889 0-102.4-45.511111-102.4-102.4s45.511111-102.4 102.4-102.4S409.6 455.111111 409.6 512c0 51.2-45.511111 96.711111-96.711111 96.711111z" p-id="7717" fill="#38bdf8"></path></svg>