<svg t="1740649358975" class="icon" viewBox="0 0 1024 1024" version="1.1" xmlns="http://www.w3.org/2000/svg" p-id="12237" width="256" height="256"><path d="M706.56 561.152v279.04h2.56-394.752c-5.632 0-11.776-0.512-17.408-2.048-10.24 1.024-20.48 2.048-30.72 2.048-140.8 0-254.976-113.152-254.976-252.416 0.512-130.048 99.328-238.592 228.864-250.88 84.48-155.136 279.04-212.48 434.688-128A322.6112 322.6112 0 0 1 833.024 414.72c89.6 6.656 124.416 5.632 180.224 90.112 0 0-93.696-28.16-153.088-28.16-58.368 0.512-153.6 37.376-153.6 84.48z m166.912 99.84c27.136 0 53.76-2.56 80.384-7.68 20.992-3.584 40.96-11.264 58.88-22.528v29.696c0 8.192-6.144 15.36-18.432 22.528-15.872 8.192-33.28 13.824-50.688 16.384-46.08 8.192-93.184 8.192-139.264 0-17.408-3.072-34.816-8.192-50.688-16.384-12.288-7.168-18.432-14.336-18.432-22.528v-29.696c17.92 11.264 37.888 18.944 58.88 22.528 25.6 5.12 52.736 7.68 79.36 7.68z m0 148.48c27.136 0 53.76-2.56 80.384-7.68 20.992-3.584 40.96-11.264 58.88-22.528v29.696c0 8.192-6.144 15.36-18.432 22.528-15.872 8.192-33.28 13.824-50.688 16.384-46.08 8.192-93.184 8.192-139.264 0-17.408-2.56-34.816-8.192-50.688-16.384-12.288-7.168-18.432-14.336-18.432-22.528v-29.696c17.92 11.264 37.888 18.944 58.88 22.528 25.6 5.12 52.736 7.68 79.36 7.68z m0-74.24c27.136 0 53.76-2.56 80.384-7.68 20.992-3.584 40.96-11.264 58.88-22.528v29.696c0 8.192-6.144 15.36-18.432 22.528-15.872 8.192-33.28 13.824-50.688 16.384-46.08 8.192-93.184 8.192-139.264 0-17.408-2.56-34.816-8.192-50.688-16.384-12.288-7.168-18.432-14.336-18.432-22.528v-29.696c17.92 11.264 37.888 18.944 58.88 22.528 25.6 5.12 52.736 7.68 79.36 7.68z m13.824-216.064c18.944 0 37.376 2.048 55.808 6.144 17.408 2.56 34.816 8.192 50.688 16.384 12.288 7.168 18.432 14.336 18.432 22.528v22.528c0 8.192-6.144 15.36-18.432 22.528-15.872 8.192-33.28 13.824-50.688 16.384-46.08 8.192-93.184 8.192-139.264 0-17.408-2.56-34.816-8.192-50.688-16.384-12.288-7.168-18.432-14.336-18.432-22.528v-22.528c0-8.192 6.144-15.36 18.432-22.528 15.872-8.192 33.28-13.824 50.688-16.384 27.648-4.096 55.808-6.144 83.456-6.144z" fill="#00bcfd" p-id="12238"></path></svg>