<svg t="1740649412338" class="icon" viewBox="0 0 1024 1024" version="1.1" xmlns="http://www.w3.org/2000/svg" p-id="14381" width="256" height="256"><path d="M838.162963 470.281481c72.438519 0 131.602963-59.164444 131.602963-131.602962V207.454815C969.765926 135.016296 910.601481 75.851852 838.162963 75.851852H185.837037C113.398519 75.851852 54.234074 135.016296 54.234074 207.454815v131.223704c0 72.438519 59.164444 131.602963 131.602963 131.602962h33.98163v83.437038H185.837037c-72.438519 0-131.602963 59.164444-131.602963 131.602962v131.223704C54.234074 888.983704 113.398519 948.148148 185.837037 948.148148h652.325926c72.438519 0 131.602963-59.164444 131.602963-131.602963v-131.223704c0-72.438519-59.164444-131.602963-131.602963-131.602962h-31.516444v-83.437038h31.516444z m-20.48-197.214814a37.925926 37.925926 0 0 1-37.925926 37.925926c-21.997037 0-37.925926-19.531852-37.925926-37.925926 0-49.000296 75.851852-51.579259 75.851852 0z m-151.703704 0c0 21.883259-17.59763 37.925926-37.925926 37.925926-21.390222 0-37.925926-17.976889-37.925926-37.925926 0-49.682963 75.851852-49.910519 75.851852 0z m-459.662222 0c0-20.859259 16.687407-37.925926 37.925926-37.925926h170.666667c20.859259 0 37.925926 17.066667 37.925926 37.925926s-17.066667 37.925926-37.925926 37.925926h-170.666667c-21.238519 0-37.925926-17.066667-37.925926-37.925926z m208.592593 515.792592h-170.666667c-21.238519 0-37.925926-17.066667-37.925926-37.925926s16.687407-37.925926 37.925926-37.925926h170.666667c20.859259 0 37.925926 17.066667 37.925926 37.925926s-17.066667 37.925926-37.925926 37.925926z m213.143703-0.379259c-21.997037 0-37.925926-18.24237-37.925926-37.925926 0-18.356148 14.184296-36.939852 37.24326-37.432889 21.845333-0.455111 38.608593 15.701333 38.608592 37.432889 0 22.034963-17.332148 37.925926-37.925926 37.925926z m189.62963-37.546667c0 21.504-16.497778 37.925926-37.925926 37.925926-21.69363 0-37.925926-18.204444-37.925926-37.925926 0-49.493333 75.851852-50.213926 75.851852 0z m-86.888296-197.214814H295.670519v-83.437038h435.124148v83.437038z" p-id="14382" fill="#00bcfd"></path></svg>