<svg t="1738664365613" class="icon" viewBox="0 0 1024 1024" version="1.1" xmlns="http://www.w3.org/2000/svg" p-id="11059" width="200" height="200"><path d="M815.25 80.23h-606.9c-111.86 0-202.87 91-202.87 202.88v470C5.48 865 96.5 956 208.35 956h606.89c111.87 0 202.88-91 202.88-202.88v-470c0.01-111.89-91-202.89-202.87-202.89zM706.43 449.74l213.14-229.11c11.03 18.34 17.76 39.56 17.76 62.49v379.13l-230.9-212.51z m108.82-288.71c14.84 0 28.89 3.05 42.06 7.92L511.79 540.34 166.3 168.95c13.17-4.87 27.22-7.92 42.05-7.92h606.9z m-711.21 59.6l213.13 229.11L86.28 662.25V283.12c0-22.92 6.73-44.15 17.76-62.49zM815.25 875.2h-606.9c-61.39 0-111.83-45.69-120.33-104.78l284.16-261.54 139.6 150.07L651.4 508.88l284.18 261.54c-8.5 59.09-58.95 104.78-120.33 104.78z" fill="#ffffff" p-id="11060"></path></svg>