<svg t="1738664608937" class="icon" viewBox="0 0 1024 1024" version="1.1" xmlns="http://www.w3.org/2000/svg" p-id="12240" width="200" height="200"><path d="M512 155.733333L891.733333 362.666667 512 569.6 132.266667 362.666667 512 155.733333zM768 746.666667c0 59.733333-104.533333 128-256 128s-256-68.266667-256-128V526.933333l234.666667 128c6.4 4.266667 12.8 4.266667 21.333333 4.266667s14.933333-2.133333 21.333333-4.266667l234.666667-128V746.666667zM42.666667 661.333333c23.466667 0 42.666667-19.2 42.666666-42.666666v-183.466667l85.333334 46.933333V746.666667c0 119.466667 149.333333 213.333333 341.333333 213.333333s341.333333-93.866667 341.333333-213.333333V482.133333l149.333334-81.066666c12.8-8.533333 21.333333-21.333333 21.333333-38.4 0-14.933333-8.533333-29.866667-21.333333-38.4l-469.333334-256c-12.8-6.4-27.733333-6.4-40.533333 0l-469.333333 256H21.333333c-2.133333 2.133333-4.266667 4.266667-6.4 4.266666H12.8c-2.133333 2.133333-4.266667 4.266667-6.4 8.533334 0 0 0 2.133333-2.133333 2.133333-2.133333 2.133333-2.133333 4.266667-2.133334 6.4v2.133333c-2.133333 8.533333-2.133333 10.666667-2.133333 14.933334v256c0 23.466667 19.2 42.666667 42.666667 42.666666z" fill="#ffffff" p-id="12241"></path></svg>